<svg xmlns="http://www.w3.org/2000/svg" viewBox="-10.000000000000014 160.077 614.5249877929688 255"> <g transform="rotate(360 108 287.577)"><svg xmlns="http://www.w3.org/2000/svg" xmlns:xlink="http://www.w3.org/1999/xlink" version="1.1" viewBox="511 415 978 1170" height="115" width="96" y="230.077" x="60" preserveAspectRatio="xMinYMin" style="overflow: visible;"><path stroke="none" stroke-width="1" fill-rule="evenodd" d="M1425.0811,415 C1431.16326,415 1437.16532,416.386994 1442.63082,419.055498 C1462.48242,428.747941 1470.71804,452.698119 1461.0256,472.549719 C1390.51183,616.972638 1324.35721,739.742186 1262.56172,840.858361 C1396.25229,902.701166 1489,1038.01939 1489,1195 C1489,1408.23714 1317.86577,1581.50374 1105.44936,1584.94775 L1099,1585 L574.918897,1585 C568.836742,1585 562.834676,1583.61301 557.369176,1580.9445 C537.517578,1571.25206 529.281956,1547.30188 538.974395,1527.45028 C609.488166,1383.02736 675.642793,1260.25781 737.438277,1159.14164 C603.747714,1097.29883 511,961.980612 511,805 C511,591.762858 682.13423,418.496257 894.550637,415.052249 L901,415 L1425.0811,415 Z M1213.03597,707 L950.398773,707 L947.167497,707.026169 C840.742099,708.751117 755,795.532508 755,902.333333 C755,980.95787 801.468761,1048.73268 868.451205,1079.70596 C837.483406,1130.36163 804.330607,1191.86732 768.992805,1264.22304 C764.145424,1274.14827 768.261834,1286.12384 778.187066,1290.97122 C780.759587,1292.22762 783.569939,1292.91615 786.427691,1292.99281 L786.964029,1293 L1049.60123,1293 L1052.8325,1292.97383 C1159.2579,1291.24888 1245,1204.46749 1245,1097.66667 C1245,1019.04213 1198.53124,951.267319 1131.5488,920.294036 C1162.51659,869.638369 1195.66939,808.132678 1231.00719,735.776962 C1235.85458,725.851729 1231.73817,713.876159 1221.81293,709.028776 C1219.07963,707.693857 1216.07784,707 1213.03597,707 Z M999,883 C1064.1696,883 1117,935.8304 1117,1001 C1117,1066.1696 1064.1696,1119 999,1119 C933.8304,1119 881,1066.1696 881,1001 C881,935.8304 933.8304,883 999,883 Z" id="Combined-Shape" fill="#133337" style="fill: #00E0FF; stroke: #fff; stroke-width: 1; fill-opacity: 1; stroke-opacity: 1;"></path></svg></g> <svg xmlns="http://www.w3.org/2000/svg" x="173.475" viewBox="0.48000001907348633 3.549999952316284 165.010009765625 19.270000457763672" y="325.654" height="19.270000457763672" width="165.010009765625" style="overflow: visible;"><g fill="#00E0FF" fill-opacity="1" style=""><path d="M11.47 4.34L11.47 5.88L6.90 5.88L6.90 18.55L5.04 18.55L5.04 5.88L0.48 5.88L0.48 4.34L11.47 4.34ZM16.72 18.75L16.72 18.75Q14.57 18.75 13.22 17.34Q11.88 15.93 11.88 13.56L11.88 13.56L11.88 13.23Q11.88 11.66 12.48 10.42Q13.08 9.19 14.16 8.49Q15.23 7.79 16.49 7.79L16.49 7.79Q18.55 7.79 19.70 9.15Q20.84 10.51 20.84 13.04L20.84 13.04L20.84 13.79L13.68 13.79Q13.72 15.35 14.59 16.31Q15.47 17.28 16.82 17.28L16.82 17.28Q17.77 17.28 18.44 16.88Q19.10 16.49 19.60 15.85L19.60 15.85L20.70 16.71Q19.38 18.75 16.72 18.75ZM16.49 9.28L16.49 9.28Q15.40 9.28 14.66 10.07Q13.92 10.87 13.74 12.30L13.74 12.30L19.03 12.30L19.03 12.17Q18.96 10.79 18.29 10.03Q17.63 9.28 16.49 9.28ZM27.17 17.28L27.17 17.28Q28.13 17.28 28.86 16.69Q29.58 16.10 29.66 15.22L29.66 15.22L31.37 15.22Q31.32 16.13 30.74 16.95Q30.17 17.77 29.20 18.26Q28.24 18.75 27.17 18.75L27.17 18.75Q25.01 18.75 23.74 17.31Q22.46 15.87 22.46 13.37L22.46 13.37L22.46 13.07Q22.46 11.52 23.03 10.32Q23.59 9.12 24.65 8.46Q25.71 7.79 27.16 7.79L27.16 7.79Q28.94 7.79 30.11 8.86Q31.29 9.92 31.37 11.62L31.37 11.62L29.66 11.62Q29.58 10.60 28.88 9.94Q28.18 9.28 27.16 9.28L27.16 9.28Q25.78 9.28 25.02 10.27Q24.27 11.26 24.27 13.13L24.27 13.13L24.27 13.48Q24.27 15.30 25.02 16.29Q25.77 17.28 27.17 17.28ZM35.21 3.55L35.21 9.27Q36.41 7.79 38.33 7.79L38.33 7.79Q41.68 7.79 41.71 11.57L41.71 11.57L41.71 18.55L39.90 18.55L39.90 11.56Q39.89 10.42 39.38 9.87Q38.87 9.33 37.78 9.33L37.78 9.33Q36.90 9.33 36.24 9.79Q35.58 10.26 35.21 11.03L35.21 11.03L35.21 18.55L33.40 18.55L33.40 3.55L35.21 3.55ZM50.57 15.75L50.57 15.75Q50.57 15.02 50.01 14.61Q49.46 14.21 48.09 13.92Q46.72 13.62 45.91 13.21Q45.11 12.80 44.72 12.24Q44.34 11.67 44.34 10.89L44.34 10.89Q44.34 9.59 45.43 8.69Q46.53 7.79 48.24 7.79L48.24 7.79Q50.04 7.79 51.16 8.72Q52.28 9.65 52.28 11.09L52.28 11.09L50.46 11.09Q50.46 10.35 49.83 9.81Q49.20 9.28 48.24 9.28L48.24 9.28Q47.26 9.28 46.70 9.71Q46.14 10.14 46.14 10.83L46.14 10.83Q46.14 11.48 46.66 11.82Q47.18 12.15 48.53 12.45Q49.88 12.75 50.72 13.17Q51.56 13.59 51.97 14.18Q52.37 14.78 52.37 15.63L52.37 15.63Q52.37 17.04 51.24 17.90Q50.11 18.75 48.30 18.75L48.30 18.75Q47.03 18.75 46.05 18.30Q45.08 17.85 44.53 17.05Q43.97 16.24 43.97 15.30L43.97 15.30L45.78 15.30Q45.83 16.21 46.51 16.74Q47.19 17.28 48.30 17.28L48.30 17.28Q49.33 17.28 49.95 16.86Q50.57 16.45 50.57 15.75ZM59.20 13.30L59.20 13.17Q59.20 11.62 59.81 10.38Q60.42 9.14 61.51 8.47Q62.60 7.79 63.99 7.79L63.99 7.79Q66.15 7.79 67.49 9.29Q68.82 10.78 68.82 13.26L68.82 13.26L68.82 13.39Q68.82 14.93 68.23 16.16Q67.64 17.38 66.54 18.07Q65.44 18.75 64.01 18.75L64.01 18.75Q61.87 18.75 60.53 17.26Q59.20 15.76 59.20 13.30L59.20 13.30ZM61.02 13.39L61.02 13.39Q61.02 15.15 61.83 16.21Q62.65 17.28 64.01 17.28L64.01 17.28Q65.39 17.28 66.20 16.20Q67.01 15.12 67.01 13.17L67.01 13.17Q67.01 11.44 66.19 10.36Q65.36 9.28 63.99 9.28L63.99 9.28Q62.66 9.28 61.84 10.34Q61.02 11.41 61.02 13.39ZM71.08 7.99L72.79 7.99L72.85 9.32Q74.06 7.79 76.02 7.79L76.02 7.79Q79.37 7.79 79.39 11.57L79.39 11.57L79.39 18.55L77.59 18.55L77.59 11.56Q77.58 10.42 77.07 9.87Q76.55 9.33 75.47 9.33L75.47 9.33Q74.59 9.33 73.93 9.79Q73.26 10.26 72.89 11.03L72.89 11.03L72.89 18.55L71.08 18.55L71.08 7.99ZM87.89 7.99L90.53 15.91L92.99 7.99L94.92 7.99L90.67 20.19Q89.69 22.82 87.54 22.82L87.54 22.82L87.20 22.79L86.52 22.67L86.52 21.20L87.01 21.24Q87.93 21.24 88.44 20.87Q88.96 20.50 89.29 19.51L89.29 19.51L89.69 18.44L85.92 7.99L87.89 7.99ZM95.91 13.30L95.91 13.17Q95.91 11.62 96.52 10.38Q97.13 9.14 98.22 8.47Q99.31 7.79 100.70 7.79L100.70 7.79Q102.86 7.79 104.19 9.29Q105.53 10.78 105.53 13.26L105.53 13.26L105.53 13.39Q105.53 14.93 104.94 16.16Q104.35 17.38 103.25 18.07Q102.15 18.75 100.72 18.75L100.72 18.75Q98.57 18.75 97.24 17.26Q95.91 15.76 95.91 13.30L95.91 13.30ZM97.72 13.39L97.72 13.39Q97.72 15.15 98.54 16.21Q99.36 17.28 100.72 17.28L100.72 17.28Q102.10 17.28 102.91 16.20Q103.72 15.12 103.72 13.17L103.72 13.17Q103.72 11.44 102.90 10.36Q102.07 9.28 100.70 9.28L100.70 9.28Q99.37 9.28 98.54 10.34Q97.72 11.41 97.72 13.39ZM114.36 18.55L114.32 17.51Q113.26 18.75 111.22 18.75L111.22 18.75Q109.53 18.75 108.65 17.77Q107.76 16.79 107.75 14.86L107.75 14.86L107.75 7.99L109.56 7.99L109.56 14.81Q109.56 17.22 111.51 17.22L111.51 17.22Q113.58 17.22 114.27 15.67L114.27 15.67L114.27 7.99L116.07 7.99L116.07 18.55L114.36 18.55ZM123.93 7.93L123.93 9.61Q123.52 9.54 123.04 9.54L123.04 9.54Q121.26 9.54 120.63 11.05L120.63 11.05L120.63 18.55L118.82 18.55L118.82 7.99L120.58 7.99L120.61 9.21Q121.49 7.79 123.13 7.79L123.13 7.79Q123.65 7.79 123.93 7.93L123.93 7.93ZM136.69 15.75L136.69 15.75Q136.69 15.02 136.14 14.61Q135.59 14.21 134.21 13.92Q132.84 13.62 132.04 13.21Q131.23 12.80 130.84 12.24Q130.46 11.67 130.46 10.89L130.46 10.89Q130.46 9.59 131.56 8.69Q132.66 7.79 134.37 7.79L134.37 7.79Q136.16 7.79 137.28 8.72Q138.40 9.65 138.40 11.09L138.40 11.09L136.58 11.09Q136.58 10.35 135.95 9.81Q135.32 9.28 134.37 9.28L134.37 9.28Q133.38 9.28 132.82 9.71Q132.27 10.14 132.27 10.83L132.27 10.83Q132.27 11.48 132.78 11.82Q133.30 12.15 134.65 12.45Q136.01 12.75 136.85 13.17Q137.69 13.59 138.09 14.18Q138.50 14.78 138.50 15.63L138.50 15.63Q138.50 17.04 137.36 17.90Q136.23 18.75 134.42 18.75L134.42 18.75Q133.15 18.75 132.18 18.30Q131.20 17.85 130.65 17.05Q130.10 16.24 130.10 15.30L130.10 15.30L131.90 15.30Q131.95 16.21 132.63 16.74Q133.31 17.28 134.42 17.28L134.42 17.28Q135.45 17.28 136.07 16.86Q136.69 16.45 136.69 15.75ZM142.81 7.99L142.81 18.55L141.01 18.55L141.01 7.99L142.81 7.99ZM140.86 5.19L140.86 5.19Q140.86 4.75 141.13 4.44Q141.40 4.14 141.92 4.14Q142.45 4.14 142.72 4.44Q143.00 4.75 143.00 5.19Q143.00 5.63 142.72 5.92Q142.45 6.21 141.92 6.21Q141.40 6.21 141.13 5.92Q140.86 5.63 140.86 5.19ZM145.26 13.32L145.26 13.18Q145.26 10.75 146.42 9.27Q147.57 7.79 149.43 7.79L149.43 7.79Q151.29 7.79 152.37 9.06L152.37 9.06L152.37 3.55L154.18 3.55L154.18 18.55L152.52 18.55L152.43 17.42Q151.35 18.75 149.41 18.75L149.41 18.75Q147.58 18.75 146.42 17.25Q145.26 15.74 145.26 13.32L145.26 13.32ZM147.07 13.39L147.07 13.39Q147.07 15.19 147.81 16.20Q148.55 17.22 149.86 17.22L149.86 17.22Q151.58 17.22 152.37 15.67L152.37 15.67L152.37 10.82Q151.56 9.33 149.88 9.33L149.88 9.33Q148.55 9.33 147.81 10.35Q147.07 11.38 147.07 13.39ZM161.37 18.75L161.37 18.75Q159.22 18.75 157.87 17.34Q156.52 15.93 156.52 13.56L156.52 13.56L156.52 13.23Q156.52 11.66 157.12 10.42Q157.72 9.19 158.80 8.49Q159.88 7.79 161.14 7.79L161.14 7.79Q163.20 7.79 164.35 9.15Q165.49 10.51 165.49 13.04L165.49 13.04L165.49 13.79L158.33 13.79Q158.37 15.35 159.24 16.31Q160.12 17.28 161.46 17.28L161.46 17.28Q162.42 17.28 163.09 16.88Q163.75 16.49 164.25 15.85L164.25 15.85L165.35 16.71Q164.02 18.75 161.37 18.75ZM161.14 9.28L161.14 9.28Q160.05 9.28 159.31 10.07Q158.56 10.87 158.39 12.30L158.39 12.30L163.68 12.30L163.68 12.17Q163.60 10.79 162.94 10.03Q162.28 9.28 161.14 9.28Z" transform="translate(0, 0)"></path></g></svg> <svg xmlns="http://www.w3.org/2000/svg" x="173.475" viewBox="1.0299999713897705 12.670000076293945 361.04998779296875 46.529998779296875" y="264.235" height="46.529998779296875" width="361.04998779296875" style="overflow: visible;"><g fill="#FFFFFF" fill-opacity="1" style=""><path d="M12.11 59.20L12.11 59.20Q6.23 59.20 3.63 56.27Q1.03 53.34 1.03 46.95L1.03 46.95L1.03 42.75L9.52 42.75L9.52 48.12Q9.52 49.61 9.97 50.45Q10.42 51.29 11.55 51.29L11.55 51.29Q12.72 51.29 13.17 50.61Q13.62 49.93 13.62 48.36L13.62 48.36Q13.62 46.39 13.23 45.06Q12.84 43.73 11.88 42.52Q10.91 41.31 9.20 39.70L9.20 39.70L5.35 36.04Q1.03 31.96 1.03 26.71L1.03 26.71Q1.03 21.22 3.58 18.33Q6.13 15.45 10.96 15.45L10.96 15.45Q16.87 15.45 19.35 18.60Q21.83 21.75 21.83 28.17L21.83 28.17L13.09 28.17L13.09 25.22Q13.09 24.34 12.59 23.85Q12.08 23.36 11.23 23.36L11.23 23.36Q10.21 23.36 9.73 23.94Q9.25 24.51 9.25 25.42L9.25 25.42Q9.25 26.32 9.74 27.37Q10.23 28.42 11.67 29.79L11.67 29.79L16.63 34.55Q18.12 35.96 19.36 37.54Q20.61 39.11 21.36 41.20Q22.12 43.29 22.12 46.29L22.12 46.29Q22.12 52.34 19.89 55.77Q17.65 59.20 12.11 59.20ZM33.52 19.95L24.78 19.95L24.78 12.67L33.52 12.67L33.52 19.95ZM33.52 58.81L24.78 58.81L24.78 22.19L33.52 22.19L33.52 58.81ZM44.19 59.20L44.19 59.20Q41.65 59.20 40.16 58.28Q38.67 57.35 37.94 55.71Q37.21 54.08 36.98 51.88Q36.74 49.68 36.74 47.17L36.74 47.17L36.74 31.25Q36.74 27.03 38.24 24.41Q39.75 21.80 43.33 21.80L43.33 21.80Q46.00 21.80 47.42 22.94Q48.85 24.07 49.63 26.10L49.63 26.10L49.63 15.84L58.52 15.84L58.52 58.81L49.63 58.81L49.63 54.93Q48.90 56.91 47.69 58.06Q46.48 59.20 44.19 59.20ZM47.53 52.37L47.53 52.37Q48.78 52.37 49.21 51.37Q49.63 50.37 49.63 47.78L49.63 47.78L49.63 32.37Q49.63 31.08 49.26 29.82Q48.88 28.56 47.58 28.56L47.58 28.56Q46.17 28.56 45.80 29.76Q45.43 30.96 45.43 32.37L45.43 32.37L45.43 47.78Q45.43 52.37 47.53 52.37ZM72.14 59.20L72.14 59.20Q68.24 59.20 65.92 57.74Q63.60 56.27 62.60 53.52Q61.60 50.76 61.60 46.88L61.60 46.88L61.60 32.15Q61.60 27.05 64.53 24.43Q67.46 21.80 72.58 21.80L72.58 21.80Q83.13 21.80 83.13 32.15L83.13 32.15L83.13 34.81Q83.13 39.65 83.03 41.31L83.03 41.31L70.34 41.31L70.34 48.39Q70.34 49.37 70.46 50.31Q70.58 51.25 71.01 51.86Q71.44 52.47 72.39 52.47L72.39 52.47Q73.75 52.47 74.10 51.28Q74.44 50.10 74.44 48.19L74.44 48.19L74.44 44.68L83.13 44.68L83.13 46.75Q83.13 50.85 82.12 53.63Q81.10 56.40 78.70 57.80Q76.29 59.20 72.14 59.20ZM70.29 32.03L70.29 36.96L74.44 36.96L74.44 32.03Q74.44 30.05 73.95 29.19Q73.46 28.32 72.49 28.32L72.49 28.32Q71.44 28.32 70.86 29.15Q70.29 29.98 70.29 32.03L70.29 32.03ZM98.73 58.81L90.14 58.81L90.14 24.10L85.03 24.10L85.03 15.84L103.83 15.84L103.83 24.10L98.73 24.10L98.73 58.81ZM116.33 59.20L116.33 59.20Q112.43 59.20 110.11 57.74Q107.79 56.27 106.79 53.52Q105.79 50.76 105.79 46.88L105.79 46.88L105.79 32.15Q105.79 27.05 108.72 24.43Q111.65 21.80 116.77 21.80L116.77 21.80Q127.32 21.80 127.32 32.15L127.32 32.15L127.32 34.81Q127.32 39.65 127.22 41.31L127.22 41.31L114.53 41.31L114.53 48.39Q114.53 49.37 114.65 50.31Q114.77 51.25 115.20 51.86Q115.63 52.47 116.58 52.47L116.58 52.47Q117.94 52.47 118.29 51.28Q118.63 50.10 118.63 48.19L118.63 48.19L118.63 44.68L127.32 44.68L127.32 46.75Q127.32 50.85 126.31 53.63Q125.29 56.40 122.89 57.80Q120.48 59.20 116.33 59.20ZM114.48 32.03L114.48 36.96L118.63 36.96L118.63 32.03Q118.63 30.05 118.14 29.19Q117.65 28.32 116.67 28.32L116.67 28.32Q115.63 28.32 115.05 29.15Q114.48 29.98 114.48 32.03L114.48 32.03ZM141.50 59.20L141.50 59.20Q135.35 59.20 132.78 56.05Q130.20 52.91 130.20 46.80L130.20 46.80L130.20 35.52Q130.20 30.93 131.18 27.88Q132.15 24.83 134.59 23.32Q137.04 21.80 141.38 21.80L141.38 21.80Q144.41 21.80 146.81 22.88Q149.22 23.95 150.61 26.03Q152.00 28.10 152.00 31.10L152.00 31.10L152.00 36.69L143.09 36.69L143.09 31.57Q143.09 30.30 142.72 29.43Q142.36 28.56 141.14 28.56L141.14 28.56Q138.99 28.56 138.99 31.62L138.99 31.62L138.99 49.37Q138.99 50.49 139.48 51.43Q139.97 52.37 141.09 52.37L141.09 52.37Q142.24 52.37 142.69 51.45Q143.14 50.54 143.14 49.32L143.14 49.32L143.14 43.16L152.00 43.16L152.00 49.56Q152.00 52.59 150.65 54.75Q149.29 56.91 146.92 58.06Q144.56 59.20 141.50 59.20ZM164.04 58.81L155.05 58.81L155.05 15.84L164.04 15.84L164.04 25.83Q164.75 23.78 166.21 22.79Q167.68 21.80 169.63 21.80L169.63 21.80Q173.44 21.80 175.17 24.19Q176.90 26.59 176.90 30.62L176.90 30.62L176.90 58.81L168.07 58.81L168.07 31.18Q168.07 29.98 167.57 29.22Q167.07 28.47 165.99 28.47L165.99 28.47Q165.09 28.47 164.56 29.25Q164.04 30.03 164.04 31.10L164.04 31.10L164.04 58.81ZM202.39 59.20L202.39 59.20Q196.51 59.20 193.91 56.27Q191.31 53.34 191.31 46.95L191.31 46.95L191.31 42.75L199.80 42.75L199.80 48.12Q199.80 49.61 200.26 50.45Q200.71 51.29 201.83 51.29L201.83 51.29Q203.00 51.29 203.45 50.61Q203.91 49.93 203.91 48.36L203.91 48.36Q203.91 46.39 203.52 45.06Q203.13 43.73 202.16 42.52Q201.20 41.31 199.49 39.70L199.49 39.70L195.63 36.04Q191.31 31.96 191.31 26.71L191.31 26.71Q191.31 21.22 193.86 18.33Q196.41 15.45 201.25 15.45L201.25 15.45Q207.15 15.45 209.63 18.60Q212.11 21.75 212.11 28.17L212.11 28.17L203.37 28.17L203.37 25.22Q203.37 24.34 202.87 23.85Q202.37 23.36 201.51 23.36L201.51 23.36Q200.49 23.36 200.01 23.94Q199.54 24.51 199.54 25.42L199.54 25.42Q199.54 26.32 200.02 27.37Q200.51 28.42 201.95 29.79L201.95 29.79L206.91 34.55Q208.40 35.96 209.64 37.54Q210.89 39.11 211.65 41.20Q212.40 43.29 212.40 46.29L212.40 46.29Q212.40 52.34 210.17 55.77Q207.93 59.20 202.39 59.20ZM225.37 59.20L225.37 59.20Q221.46 59.20 219.14 57.74Q216.82 56.27 215.82 53.52Q214.82 50.76 214.82 46.88L214.82 46.88L214.82 32.15Q214.82 27.05 217.75 24.43Q220.68 21.80 225.81 21.80L225.81 21.80Q236.35 21.80 236.35 32.15L236.35 32.15L236.35 34.81Q236.35 39.65 236.25 41.31L236.25 41.31L223.56 41.31L223.56 48.39Q223.56 49.37 223.68 50.31Q223.80 51.25 224.23 51.86Q224.66 52.47 225.61 52.47L225.61 52.47Q226.98 52.47 227.32 51.28Q227.66 50.10 227.66 48.19L227.66 48.19L227.66 44.68L236.35 44.68L236.35 46.75Q236.35 50.85 235.34 53.63Q234.33 56.40 231.92 57.80Q229.52 59.20 225.37 59.20ZM223.51 32.03L223.51 36.96L227.66 36.96L227.66 32.03Q227.66 30.05 227.17 29.19Q226.68 28.32 225.71 28.32L225.71 28.32Q224.66 28.32 224.08 29.15Q223.51 29.98 223.51 32.03L223.51 32.03ZM248.41 58.81L239.53 58.81L239.53 22.19L248.41 22.19L248.41 26.27Q249.05 24.15 250.66 22.95Q252.27 21.75 254.71 21.75L254.71 21.75L254.71 29.05Q253.64 29.05 252.15 29.28Q250.66 29.52 249.54 29.92Q248.41 30.32 248.41 30.81L248.41 30.81L248.41 58.81ZM271.63 58.81L261.52 58.81L255.64 22.19L264.40 22.19L266.50 46.66L268.87 22.19L277.61 22.19L271.63 58.81ZM288.60 19.95L279.86 19.95L279.86 12.67L288.60 12.67L288.60 19.95ZM288.60 58.81L279.86 58.81L279.86 22.19L288.60 22.19L288.60 58.81ZM303.08 59.20L303.08 59.20Q296.92 59.20 294.35 56.05Q291.77 52.91 291.77 46.80L291.77 46.80L291.77 35.52Q291.77 30.93 292.75 27.88Q293.73 24.83 296.17 23.32Q298.61 21.80 302.95 21.80L302.95 21.80Q305.98 21.80 308.39 22.88Q310.79 23.95 312.18 26.03Q313.57 28.10 313.57 31.10L313.57 31.10L313.57 36.69L304.66 36.69L304.66 31.57Q304.66 30.30 304.30 29.43Q303.93 28.56 302.71 28.56L302.71 28.56Q300.56 28.56 300.56 31.62L300.56 31.62L300.56 49.37Q300.56 50.49 301.05 51.43Q301.54 52.37 302.66 52.37L302.66 52.37Q303.81 52.37 304.26 51.45Q304.71 50.54 304.71 49.32L304.71 49.32L304.71 43.16L313.57 43.16L313.57 49.56Q313.57 52.59 312.22 54.75Q310.86 56.91 308.50 58.06Q306.13 59.20 303.08 59.20ZM326.88 59.20L326.88 59.20Q322.97 59.20 320.65 57.74Q318.33 56.27 317.33 53.52Q316.33 50.76 316.33 46.88L316.33 46.88L316.33 32.15Q316.33 27.05 319.26 24.43Q322.19 21.80 327.32 21.80L327.32 21.80Q337.87 21.80 337.87 32.15L337.87 32.15L337.87 34.81Q337.87 39.65 337.77 41.31L337.77 41.31L325.07 41.31L325.07 48.39Q325.07 49.37 325.20 50.31Q325.32 51.25 325.74 51.86Q326.17 52.47 327.12 52.47L327.12 52.47Q328.49 52.47 328.83 51.28Q329.17 50.10 329.17 48.19L329.17 48.19L329.17 44.68L337.87 44.68L337.87 46.75Q337.87 50.85 336.85 53.63Q335.84 56.40 333.44 57.80Q331.03 59.20 326.88 59.20ZM325.02 32.03L325.02 36.96L329.17 36.96L329.17 32.03Q329.17 30.05 328.69 29.19Q328.20 28.32 327.22 28.32L327.22 28.32Q326.17 28.32 325.60 29.15Q325.02 29.98 325.02 32.03L325.02 32.03ZM351.07 59.20L351.07 59.20Q340.23 59.20 340.23 48.22L340.23 48.22L340.23 45.31L349.02 45.31L349.02 49.61Q349.02 50.85 349.51 51.56Q350 52.27 351.07 52.27L351.07 52.27Q352.98 52.27 352.98 49.41L352.98 49.41Q352.98 47.02 351.98 45.84Q350.98 44.65 349.54 43.55L349.54 43.55L344.87 39.97Q342.68 38.26 341.53 36.35Q340.38 34.45 340.38 31.05L340.38 31.05Q340.38 27.91 341.88 25.85Q343.38 23.80 345.86 22.80Q348.34 21.80 351.22 21.80L351.22 21.80Q361.87 21.80 361.87 32.42L361.87 32.42L361.87 33.11L352.83 33.11L352.83 31.71Q352.83 30.62 352.45 29.59Q352.08 28.56 350.98 28.56L350.98 28.56Q349.12 28.56 349.12 30.52L349.12 30.52Q349.12 32.50 350.68 33.62L350.68 33.62L356.10 37.57Q358.64 39.40 360.36 41.92Q362.08 44.43 362.08 48.61L362.08 48.61Q362.08 53.78 359.14 56.49Q356.20 59.20 351.07 59.20Z" transform="translate(0, 0)"></path></g></svg></svg>